<svg width="48" height="13" viewBox="0 0 48 13" fill="none" xmlns="http://www.w3.org/2000/svg">
<path d="M0.992188 0.726562V12H3.00781V8.27344H5.28906C7.57031 8.27344 9.17188 6.75 9.17188 4.5C9.17188 2.25 7.61719 0.726562 5.375 0.726562H0.992188ZM3.00781 2.375H4.84375C6.28906 2.375 7.125 3.14844 7.125 4.5C7.125 5.86719 6.28125 6.64844 4.83594 6.64844H3.00781V2.375Z" fill="white"/>
<path d="M10.5 12H12.4453V3.71875H10.5V12ZM11.4688 2.63281C12.0781 2.63281 12.5547 2.16406 12.5547 1.57812C12.5547 0.984375 12.0781 0.515625 11.4688 0.515625C10.8672 0.515625 10.3906 0.984375 10.3906 1.57812C10.3906 2.16406 10.8672 2.63281 11.4688 2.63281Z" fill="white"/>
<path d="M16.1016 7.17188H16.0781V0.726562H14.1328V12H16.0781V9.125L16.7344 8.46094L19.3516 12H21.6016L18.1484 7.28125L21.4609 3.71875H19.2188L16.1016 7.17188Z" fill="white"/>
<path d="M25.3672 10.6641C24.5234 10.6641 23.9609 10.2344 23.9609 9.55469C23.9609 8.89844 24.5 8.47656 25.4375 8.41406L27.3516 8.29688V8.92969C27.3516 9.92969 26.4688 10.6641 25.3672 10.6641ZM24.7812 12.1328C25.8438 12.1328 26.8828 11.5781 27.3594 10.6797H27.3984V12H29.2734V6.29688C29.2734 4.63281 27.9375 3.54688 25.8828 3.54688C23.7734 3.54688 22.4531 4.65625 22.3672 6.20312H24.1719C24.2969 5.51562 24.8828 5.07031 25.8047 5.07031C26.7656 5.07031 27.3516 5.57031 27.3516 6.4375V7.03125L25.1641 7.15625C23.1484 7.28125 22.0156 8.16406 22.0156 9.63281C22.0156 11.125 23.1797 12.1328 24.7812 12.1328Z" fill="white"/>
<path d="M35.4766 12.1328C37.5703 12.1328 38.8906 10.5078 38.8906 7.85938C38.8906 5.21094 37.5625 3.57812 35.4766 3.57812C34.3047 3.57812 33.3594 4.17188 32.8906 5.14062H32.8438V0.726562H30.8984V12H32.8047V10.5859H32.8438C33.3281 11.5469 34.2578 12.1328 35.4766 12.1328ZM34.875 5.17969C36.1172 5.17969 36.8984 6.21875 36.8984 7.85938C36.8984 9.50781 36.125 10.5391 34.875 10.5391C33.6719 10.5391 32.8359 9.48438 32.8359 7.85938C32.8359 6.25 33.6719 5.17969 34.875 5.17969Z" fill="white"/>
<path d="M47.5 3.71875H45.5547V8.50781C45.5547 9.71094 44.8594 10.5078 43.7344 10.5078C42.6406 10.5078 42.0625 9.86719 42.0625 8.67969V3.71875H40.1172V9.07031C40.1172 10.9844 41.2578 12.1484 43.0547 12.1484C44.3125 12.1484 45.1484 11.5703 45.5859 10.5625H45.625V12H47.5V3.71875Z" fill="white"/>
</svg>
